{
	"patcher" : 	{
		"fileversion" : 1,
		"appversion" : 		{
			"major" : 8,
			"minor" : 0,
			"revision" : 3,
			"architecture" : "x64",
			"modernui" : 1
		}
,
		"classnamespace" : "box",
		"rect" : [ 35.0, 70.0, 1212.0, 687.0 ],
		"bglocked" : 0,
		"openinpresentation" : 0,
		"default_fontsize" : 12.0,
		"default_fontface" : 0,
		"default_fontname" : "Arial",
		"gridonopen" : 1,
		"gridsize" : [ 15.0, 15.0 ],
		"gridsnaponopen" : 1,
		"objectsnaponopen" : 1,
		"statusbarvisible" : 2,
		"toolbarvisible" : 1,
		"lefttoolbarpinned" : 0,
		"toptoolbarpinned" : 0,
		"righttoolbarpinned" : 0,
		"bottomtoolbarpinned" : 0,
		"toolbars_unpinned_last_save" : 0,
		"tallnewobj" : 0,
		"boxanimatetime" : 200,
		"enablehscroll" : 1,
		"enablevscroll" : 1,
		"devicewidth" : 0.0,
		"description" : "",
		"digest" : "",
		"tags" : "",
		"style" : "",
		"subpatcher_template" : "",
		"boxes" : [ 			{
				"box" : 				{
					"id" : "obj-122",
					"maxclass" : "newobj",
					"numinlets" : 2,
					"numoutlets" : 1,
					"outlettype" : [ "int" ],
					"patching_rect" : [ 1203.5, 674.0, 37.0, 22.0 ],
					"text" : "* 800"
				}

			}
, 			{
				"box" : 				{
					"id" : "obj-121",
					"maxclass" : "newobj",
					"numinlets" : 2,
					"numoutlets" : 1,
					"outlettype" : [ "int" ],
					"patching_rect" : [ 1111.0, 670.0, 37.0, 22.0 ],
					"text" : "* 800"
				}

			}
, 			{
				"box" : 				{
					"fontname" : "Arial",
					"fontsize" : 13.0,
					"id" : "obj-116",
					"maxclass" : "number",
					"numinlets" : 1,
					"numoutlets" : 2,
					"outlettype" : [ "", "bang" ],
					"parameter_enable" : 0,
					"patching_rect" : [ 1254.5, 409.5, 53.0, 23.0 ]
				}

			}
, 			{
				"box" : 				{
					"fontname" : "Arial",
					"fontsize" : 13.0,
					"id" : "obj-117",
					"maxclass" : "number",
					"numinlets" : 1,
					"numoutlets" : 2,
					"outlettype" : [ "", "bang" ],
					"parameter_enable" : 0,
					"patching_rect" : [ 1220.5, 434.5, 53.0, 23.0 ]
				}

			}
, 			{
				"box" : 				{
					"id" : "obj-94",
					"maxclass" : "comment",
					"numinlets" : 1,
					"numoutlets" : 0,
					"patching_rect" : [ 1200.0, 441.5, 89.0, 20.0 ],
					"style" : "helpfile_label",
					"text" : "Control value"
				}

			}
, 			{
				"box" : 				{
					"id" : "obj-118",
					"maxclass" : "newobj",
					"numinlets" : 1,
					"numoutlets" : 2,
					"outlettype" : [ "int", "int" ],
					"patching_rect" : [ 1220.5, 379.5, 40.0, 22.0 ],
					"text" : "ctlin 5"
				}

			}
, 			{
				"box" : 				{
					"fontname" : "Arial",
					"fontsize" : 13.0,
					"id" : "obj-119",
					"maxclass" : "number",
					"numinlets" : 1,
					"numoutlets" : 2,
					"outlettype" : [ "", "bang" ],
					"parameter_enable" : 0,
					"patching_rect" : [ 1220.5, 640.5, 53.0, 23.0 ]
				}

			}
, 			{
				"box" : 				{
					"id" : "obj-120",
					"maxclass" : "slider",
					"numinlets" : 1,
					"numoutlets" : 1,
					"outlettype" : [ "" ],
					"parameter_enable" : 0,
					"patching_rect" : [ 1220.5, 471.5, 20.0, 140.0 ]
				}

			}
, 			{
				"box" : 				{
					"fontname" : "Arial",
					"fontsize" : 13.0,
					"id" : "obj-111",
					"maxclass" : "number",
					"numinlets" : 1,
					"numoutlets" : 2,
					"outlettype" : [ "", "bang" ],
					"parameter_enable" : 0,
					"patching_rect" : [ 1153.5, 402.5, 53.0, 23.0 ]
				}

			}
, 			{
				"box" : 				{
					"fontname" : "Arial",
					"fontsize" : 13.0,
					"id" : "obj-112",
					"maxclass" : "number",
					"numinlets" : 1,
					"numoutlets" : 2,
					"outlettype" : [ "", "bang" ],
					"parameter_enable" : 0,
					"patching_rect" : [ 1119.5, 427.5, 53.0, 23.0 ]
				}

			}
, 			{
				"box" : 				{
					"id" : "obj-113",
					"maxclass" : "newobj",
					"numinlets" : 1,
					"numoutlets" : 2,
					"outlettype" : [ "int", "int" ],
					"patching_rect" : [ 1119.5, 372.5, 40.0, 22.0 ],
					"text" : "ctlin 4"
				}

			}
, 			{
				"box" : 				{
					"fontname" : "Arial",
					"fontsize" : 13.0,
					"id" : "obj-114",
					"maxclass" : "number",
					"numinlets" : 1,
					"numoutlets" : 2,
					"outlettype" : [ "", "bang" ],
					"parameter_enable" : 0,
					"patching_rect" : [ 1119.5, 633.5, 53.0, 23.0 ]
				}

			}
, 			{
				"box" : 				{
					"id" : "obj-115",
					"maxclass" : "slider",
					"numinlets" : 1,
					"numoutlets" : 1,
					"outlettype" : [ "" ],
					"parameter_enable" : 0,
					"patching_rect" : [ 1119.5, 464.5, 20.0, 140.0 ]
				}

			}
, 			{
				"box" : 				{
					"annotation" : "## Interpolate and resample video input ##",
					"bgmode" : 1,
					"border" : 0,
					"clickthrough" : 0,
					"enablehscroll" : 0,
					"enablevscroll" : 0,
					"id" : "obj-110",
					"lockeddragscroll" : 0,
					"maxclass" : "bpatcher",
					"name" : "vz.resamplr.maxpat",
					"numinlets" : 4,
					"numoutlets" : 1,
					"offset" : [ 0.0, 0.0 ],
					"outlettype" : [ "" ],
					"patching_rect" : [ 222.0, 318.5, 188.0, 130.0 ],
					"prototypename" : "pixl",
					"varname" : "zamplr[1]",
					"viewvisibility" : 1
				}

			}
, 			{
				"box" : 				{
					"annotation" : "## The VIZZIE video player/looper ##",
					"bgmode" : 1,
					"border" : 0,
					"clickthrough" : 0,
					"enablehscroll" : 0,
					"enablevscroll" : 0,
					"id" : "obj-109",
					"lockeddragscroll" : 0,
					"maxclass" : "bpatcher",
					"name" : "vz.playr.maxpat",
					"numinlets" : 5,
					"numoutlets" : 2,
					"offset" : [ 0.0, 0.0 ],
					"outlettype" : [ "", "" ],
					"patching_rect" : [ 282.5, 5.0, 348.0, 158.0 ],
					"prototypename" : "pixl",
					"varname" : "playr[1]",
					"viewvisibility" : 1
				}

			}
, 			{
				"box" : 				{
					"annotation" : "## The VIZZIE video player/looper ##",
					"bgmode" : 1,
					"border" : 0,
					"clickthrough" : 0,
					"enablehscroll" : 0,
					"enablevscroll" : 0,
					"id" : "obj-6",
					"lockeddragscroll" : 0,
					"maxclass" : "bpatcher",
					"name" : "vz.playr.maxpat",
					"numinlets" : 5,
					"numoutlets" : 2,
					"offset" : [ 0.0, 0.0 ],
					"outlettype" : [ "", "" ],
					"patching_rect" : [ 14.0, 5.0, 348.0, 158.0 ],
					"prototypename" : "pixl",
					"varname" : "playr",
					"viewvisibility" : 1
				}

			}
, 			{
				"box" : 				{
					"id" : "obj-103",
					"maxclass" : "newobj",
					"numinlets" : 2,
					"numoutlets" : 1,
					"outlettype" : [ "int" ],
					"patching_rect" : [ 965.0, 426.0, 43.0, 22.0 ],
					"text" : "* 1000"
				}

			}
, 			{
				"box" : 				{
					"id" : "obj-99",
					"maxclass" : "live.dial",
					"numinlets" : 1,
					"numoutlets" : 2,
					"outlettype" : [ "", "float" ],
					"parameter_enable" : 1,
					"patching_rect" : [ 951.0, 359.5, 44.0, 48.0 ],
					"saved_attribute_attributes" : 					{
						"valueof" : 						{
							"parameter_shortname" : "live.dial",
							"parameter_type" : 0,
							"parameter_unitstyle" : 0,
							"parameter_longname" : "live.dial[5]"
						}

					}
,
					"varname" : "live.dial[4]"
				}

			}
, 			{
				"box" : 				{
					"id" : "obj-100",
					"maxclass" : "number",
					"numinlets" : 1,
					"numoutlets" : 2,
					"outlettype" : [ "", "bang" ],
					"parameter_enable" : 0,
					"patching_rect" : [ 997.5, 330.0, 50.0, 22.0 ]
				}

			}
, 			{
				"box" : 				{
					"id" : "obj-101",
					"maxclass" : "number",
					"numinlets" : 1,
					"numoutlets" : 2,
					"outlettype" : [ "", "bang" ],
					"parameter_enable" : 0,
					"patching_rect" : [ 951.0, 330.0, 50.0, 22.0 ]
				}

			}
, 			{
				"box" : 				{
					"id" : "obj-102",
					"maxclass" : "newobj",
					"numinlets" : 1,
					"numoutlets" : 2,
					"outlettype" : [ "int", "int" ],
					"patching_rect" : [ 959.0, 299.0, 49.0, 22.0 ],
					"text" : "ctlin 90"
				}

			}
, 			{
				"box" : 				{
					"id" : "obj-98",
					"maxclass" : "message",
					"numinlets" : 2,
					"numoutlets" : 1,
					"outlettype" : [ "" ],
					"patching_rect" : [ 352.5, 540.0, 172.0, 22.0 ],
					"text" : "KALIDOSCOPIO FRACTALES"
				}

			}
, 			{
				"box" : 				{
					"annotation" : "## Change a video's hue/saturation/lightness ##",
					"bgmode" : 1,
					"border" : 0,
					"clickthrough" : 0,
					"enablehscroll" : 0,
					"enablevscroll" : 0,
					"id" : "obj-35",
					"lockeddragscroll" : 0,
					"maxclass" : "bpatcher",
					"name" : "vz.husalir.maxpat",
					"numinlets" : 7,
					"numoutlets" : 1,
					"offset" : [ 0.0, 0.0 ],
					"outlettype" : [ "" ],
					"patching_rect" : [ 988.5, 147.0, 218.0, 146.0 ],
					"prototypename" : "pixl",
					"varname" : "husalir",
					"viewvisibility" : 1
				}

			}
, 			{
				"box" : 				{
					"id" : "obj-80",
					"maxclass" : "newobj",
					"numinlets" : 2,
					"numoutlets" : 1,
					"outlettype" : [ "int" ],
					"patching_rect" : [ 1027.5, 551.0, 37.0, 22.0 ],
					"text" : "* 800"
				}

			}
, 			{
				"box" : 				{
					"id" : "obj-74",
					"maxclass" : "newobj",
					"numinlets" : 2,
					"numoutlets" : 1,
					"outlettype" : [ "int" ],
					"patching_rect" : [ 875.5, 551.0, 37.0, 22.0 ],
					"text" : "* 800"
				}

			}
, 			{
				"box" : 				{
					"id" : "obj-88",
					"maxclass" : "live.dial",
					"numinlets" : 1,
					"numoutlets" : 2,
					"outlettype" : [ "", "float" ],
					"parameter_enable" : 1,
					"patching_rect" : [ 1021.0, 473.5, 44.0, 48.0 ],
					"saved_attribute_attributes" : 					{
						"valueof" : 						{
							"parameter_shortname" : "live.dial",
							"parameter_type" : 0,
							"parameter_unitstyle" : 0,
							"parameter_longname" : "live.dial[8]"
						}

					}
,
					"varname" : "live.dial[8]"
				}

			}
, 			{
				"box" : 				{
					"id" : "obj-89",
					"maxclass" : "number",
					"numinlets" : 1,
					"numoutlets" : 2,
					"outlettype" : [ "", "bang" ],
					"parameter_enable" : 0,
					"patching_rect" : [ 1059.0, 443.5, 50.0, 22.0 ]
				}

			}
, 			{
				"box" : 				{
					"id" : "obj-90",
					"maxclass" : "number",
					"numinlets" : 1,
					"numoutlets" : 2,
					"outlettype" : [ "", "bang" ],
					"parameter_enable" : 0,
					"patching_rect" : [ 1021.0, 443.5, 50.0, 22.0 ]
				}

			}
, 			{
				"box" : 				{
					"id" : "obj-91",
					"maxclass" : "newobj",
					"numinlets" : 1,
					"numoutlets" : 2,
					"outlettype" : [ "int", "int" ],
					"patching_rect" : [ 1021.0, 412.5, 49.0, 22.0 ],
					"text" : "ctlin 99"
				}

			}
, 			{
				"box" : 				{
					"id" : "obj-84",
					"maxclass" : "live.dial",
					"numinlets" : 1,
					"numoutlets" : 2,
					"outlettype" : [ "", "float" ],
					"parameter_enable" : 1,
					"patching_rect" : [ 869.0, 467.5, 44.0, 48.0 ],
					"saved_attribute_attributes" : 					{
						"valueof" : 						{
							"parameter_shortname" : "live.dial",
							"parameter_type" : 0,
							"parameter_unitstyle" : 0,
							"parameter_longname" : "live.dial[7]"
						}

					}
,
					"varname" : "live.dial[7]"
				}

			}
, 			{
				"box" : 				{
					"id" : "obj-85",
					"maxclass" : "number",
					"numinlets" : 1,
					"numoutlets" : 2,
					"outlettype" : [ "", "bang" ],
					"parameter_enable" : 0,
					"patching_rect" : [ 907.0, 437.5, 50.0, 22.0 ]
				}

			}
, 			{
				"box" : 				{
					"id" : "obj-86",
					"maxclass" : "number",
					"numinlets" : 1,
					"numoutlets" : 2,
					"outlettype" : [ "", "bang" ],
					"parameter_enable" : 0,
					"patching_rect" : [ 869.0, 437.5, 50.0, 22.0 ]
				}

			}
, 			{
				"box" : 				{
					"id" : "obj-87",
					"maxclass" : "newobj",
					"numinlets" : 1,
					"numoutlets" : 2,
					"outlettype" : [ "int", "int" ],
					"patching_rect" : [ 869.0, 406.5, 49.0, 22.0 ],
					"text" : "ctlin 91"
				}

			}
, 			{
				"box" : 				{
					"id" : "obj-69",
					"maxclass" : "newobj",
					"numinlets" : 2,
					"numoutlets" : 1,
					"outlettype" : [ "int" ],
					"patching_rect" : [ 748.5, 693.0, 37.0, 22.0 ],
					"text" : "* 800"
				}

			}
, 			{
				"box" : 				{
					"id" : "obj-68",
					"maxclass" : "newobj",
					"numinlets" : 2,
					"numoutlets" : 1,
					"outlettype" : [ "int" ],
					"patching_rect" : [ 602.0, 681.0, 37.0, 22.0 ],
					"text" : "* 800"
				}

			}
, 			{
				"box" : 				{
					"fontname" : "Arial",
					"fontsize" : 13.0,
					"id" : "obj-92",
					"maxclass" : "number",
					"numinlets" : 1,
					"numoutlets" : 2,
					"outlettype" : [ "", "bang" ],
					"parameter_enable" : 0,
					"patching_rect" : [ 782.5, 435.0, 53.0, 23.0 ]
				}

			}
, 			{
				"box" : 				{
					"fontname" : "Arial",
					"fontsize" : 13.0,
					"id" : "obj-93",
					"maxclass" : "number",
					"numinlets" : 1,
					"numoutlets" : 2,
					"outlettype" : [ "", "bang" ],
					"parameter_enable" : 0,
					"patching_rect" : [ 748.5, 460.0, 53.0, 23.0 ]
				}

			}
, 			{
				"box" : 				{
					"id" : "obj-95",
					"maxclass" : "newobj",
					"numinlets" : 1,
					"numoutlets" : 2,
					"outlettype" : [ "int", "int" ],
					"patching_rect" : [ 748.5, 405.0, 42.0, 22.0 ],
					"text" : "ctlin 3"
				}

			}
, 			{
				"box" : 				{
					"fontname" : "Arial",
					"fontsize" : 13.0,
					"id" : "obj-96",
					"maxclass" : "number",
					"numinlets" : 1,
					"numoutlets" : 2,
					"outlettype" : [ "", "bang" ],
					"parameter_enable" : 0,
					"patching_rect" : [ 748.5, 649.0, 53.0, 23.0 ]
				}

			}
, 			{
				"box" : 				{
					"id" : "obj-97",
					"maxclass" : "slider",
					"numinlets" : 1,
					"numoutlets" : 1,
					"outlettype" : [ "" ],
					"parameter_enable" : 0,
					"patching_rect" : [ 748.5, 497.0, 20.0, 140.0 ]
				}

			}
, 			{
				"box" : 				{
					"fontname" : "Arial",
					"fontsize" : 13.0,
					"id" : "obj-78",
					"maxclass" : "number",
					"numinlets" : 1,
					"numoutlets" : 2,
					"outlettype" : [ "", "bang" ],
					"parameter_enable" : 0,
					"patching_rect" : [ 644.5, 435.0, 53.0, 23.0 ]
				}

			}
, 			{
				"box" : 				{
					"fontname" : "Arial",
					"fontsize" : 13.0,
					"id" : "obj-79",
					"maxclass" : "number",
					"numinlets" : 1,
					"numoutlets" : 2,
					"outlettype" : [ "", "bang" ],
					"parameter_enable" : 0,
					"patching_rect" : [ 610.5, 460.0, 53.0, 23.0 ]
				}

			}
, 			{
				"box" : 				{
					"id" : "obj-81",
					"maxclass" : "newobj",
					"numinlets" : 1,
					"numoutlets" : 2,
					"outlettype" : [ "int", "int" ],
					"patching_rect" : [ 610.5, 405.0, 42.0, 22.0 ],
					"text" : "ctlin 2"
				}

			}
, 			{
				"box" : 				{
					"fontname" : "Arial",
					"fontsize" : 13.0,
					"id" : "obj-82",
					"maxclass" : "number",
					"numinlets" : 1,
					"numoutlets" : 2,
					"outlettype" : [ "", "bang" ],
					"parameter_enable" : 0,
					"patching_rect" : [ 610.5, 649.0, 53.0, 23.0 ]
				}

			}
, 			{
				"box" : 				{
					"id" : "obj-83",
					"maxclass" : "slider",
					"numinlets" : 1,
					"numoutlets" : 1,
					"outlettype" : [ "" ],
					"parameter_enable" : 0,
					"patching_rect" : [ 610.5, 497.0, 20.0, 140.0 ]
				}

			}
, 			{
				"box" : 				{
					"annotation" : "## Up/downsample video input ##",
					"bgmode" : 1,
					"border" : 0,
					"clickthrough" : 0,
					"enablehscroll" : 0,
					"enablevscroll" : 0,
					"id" : "obj-1",
					"lockeddragscroll" : 0,
					"maxclass" : "bpatcher",
					"name" : "vz.zamplr.maxpat",
					"numinlets" : 6,
					"numoutlets" : 1,
					"offset" : [ 0.0, 0.0 ],
					"outlettype" : [ "" ],
					"patching_rect" : [ 25.0, 589.5, 228.0, 130.0 ],
					"prototypename" : "pixl",
					"varname" : "zamplr",
					"viewvisibility" : 1
				}

			}
, 			{
				"box" : 				{
					"annotation" : "## Create video \"meta images\"## ",
					"bgmode" : 1,
					"border" : 0,
					"clickthrough" : 0,
					"enablehscroll" : 0,
					"enablevscroll" : 0,
					"id" : "obj-67",
					"lockeddragscroll" : 0,
					"maxclass" : "bpatcher",
					"name" : "vz.fractalizr.maxpat",
					"numinlets" : 5,
					"numoutlets" : 1,
					"offset" : [ 0.0, 0.0 ],
					"outlettype" : [ "" ],
					"patching_rect" : [ 14.0, 440.0, 258.0, 130.0 ],
					"prototypename" : "pixl",
					"varname" : "fractalizr",
					"viewvisibility" : 1
				}

			}
, 			{
				"box" : 				{
					"annotation" : "## Kaleidoscope-like image folding ##",
					"bgmode" : 1,
					"border" : 0,
					"clickthrough" : 0,
					"enablehscroll" : 0,
					"enablevscroll" : 0,
					"id" : "obj-17",
					"lockeddragscroll" : 0,
					"maxclass" : "bpatcher",
					"name" : "vz.kaleidr.maxpat",
					"numinlets" : 5,
					"numoutlets" : 1,
					"offset" : [ 0.0, 0.0 ],
					"outlettype" : [ "" ],
					"patching_rect" : [ 4.0, 307.0, 188.0, 130.0 ],
					"prototypename" : "pixl",
					"varname" : "kaleidr",
					"viewvisibility" : 1
				}

			}
, 			{
				"box" : 				{
					"fontname" : "Arial",
					"fontsize" : 13.0,
					"id" : "obj-72",
					"maxclass" : "number",
					"numinlets" : 1,
					"numoutlets" : 2,
					"outlettype" : [ "", "bang" ],
					"parameter_enable" : 0,
					"patching_rect" : [ 497.0, 440.0, 53.0, 23.0 ]
				}

			}
, 			{
				"box" : 				{
					"fontname" : "Arial",
					"fontsize" : 13.0,
					"id" : "obj-73",
					"maxclass" : "number",
					"numinlets" : 1,
					"numoutlets" : 2,
					"outlettype" : [ "", "bang" ],
					"parameter_enable" : 0,
					"patching_rect" : [ 457.5, 465.0, 53.0, 23.0 ]
				}

			}
, 			{
				"box" : 				{
					"id" : "obj-75",
					"maxclass" : "newobj",
					"numinlets" : 1,
					"numoutlets" : 2,
					"outlettype" : [ "int", "int" ],
					"patching_rect" : [ 474.0, 415.0, 42.0, 22.0 ],
					"text" : "ctlin 1"
				}

			}
, 			{
				"box" : 				{
					"fontname" : "Arial",
					"fontsize" : 13.0,
					"id" : "obj-76",
					"maxclass" : "number",
					"numinlets" : 1,
					"numoutlets" : 2,
					"outlettype" : [ "", "bang" ],
					"parameter_enable" : 0,
					"patching_rect" : [ 457.5, 649.0, 53.0, 23.0 ]
				}

			}
, 			{
				"box" : 				{
					"id" : "obj-77",
					"maxclass" : "slider",
					"numinlets" : 1,
					"numoutlets" : 1,
					"outlettype" : [ "" ],
					"parameter_enable" : 0,
					"patching_rect" : [ 457.5, 497.0, 20.0, 140.0 ]
				}

			}
, 			{
				"box" : 				{
					"id" : "obj-65",
					"maxclass" : "message",
					"numinlets" : 2,
					"numoutlets" : 1,
					"outlettype" : [ "" ],
					"patching_rect" : [ 711.0, 302.5, 83.0, 22.0 ],
					"text" : "TRANSICION"
				}

			}
, 			{
				"box" : 				{
					"id" : "obj-61",
					"maxclass" : "newobj",
					"numinlets" : 2,
					"numoutlets" : 1,
					"outlettype" : [ "int" ],
					"patching_rect" : [ 658.5, 352.0, 37.0, 22.0 ],
					"text" : "* 800"
				}

			}
, 			{
				"box" : 				{
					"id" : "obj-59",
					"maxclass" : "newobj",
					"numinlets" : 2,
					"numoutlets" : 1,
					"outlettype" : [ "int" ],
					"patching_rect" : [ 546.5, 347.0, 37.0, 22.0 ],
					"text" : "* 800"
				}

			}
, 			{
				"box" : 				{
					"id" : "obj-55",
					"maxclass" : "live.dial",
					"numinlets" : 1,
					"numoutlets" : 2,
					"outlettype" : [ "", "float" ],
					"parameter_enable" : 1,
					"patching_rect" : [ 645.5, 289.5, 44.0, 48.0 ],
					"saved_attribute_attributes" : 					{
						"valueof" : 						{
							"parameter_shortname" : "live.dial",
							"parameter_type" : 0,
							"parameter_unitstyle" : 0,
							"parameter_longname" : "live.dial[4]"
						}

					}
,
					"varname" : "live.dial[3]"
				}

			}
, 			{
				"box" : 				{
					"id" : "obj-56",
					"maxclass" : "number",
					"numinlets" : 1,
					"numoutlets" : 2,
					"outlettype" : [ "", "bang" ],
					"parameter_enable" : 0,
					"patching_rect" : [ 669.0, 260.0, 50.0, 22.0 ]
				}

			}
, 			{
				"box" : 				{
					"id" : "obj-57",
					"maxclass" : "number",
					"numinlets" : 1,
					"numoutlets" : 2,
					"outlettype" : [ "", "bang" ],
					"parameter_enable" : 0,
					"patching_rect" : [ 633.0, 260.0, 50.0, 22.0 ]
				}

			}
, 			{
				"box" : 				{
					"id" : "obj-58",
					"maxclass" : "newobj",
					"numinlets" : 1,
					"numoutlets" : 2,
					"outlettype" : [ "int", "int" ],
					"patching_rect" : [ 643.0, 229.0, 49.0, 22.0 ],
					"text" : "ctlin 97"
				}

			}
, 			{
				"box" : 				{
					"id" : "obj-54",
					"maxclass" : "newobj",
					"numinlets" : 2,
					"numoutlets" : 1,
					"outlettype" : [ "int" ],
					"patching_rect" : [ 443.5, 347.0, 37.0, 22.0 ],
					"text" : "* 800"
				}

			}
, 			{
				"box" : 				{
					"id" : "obj-48",
					"maxclass" : "live.dial",
					"numinlets" : 1,
					"numoutlets" : 2,
					"outlettype" : [ "", "float" ],
					"parameter_enable" : 1,
					"patching_rect" : [ 440.0, 289.5, 44.0, 48.0 ],
					"saved_attribute_attributes" : 					{
						"valueof" : 						{
							"parameter_shortname" : "live.dial",
							"parameter_type" : 0,
							"parameter_unitstyle" : 0,
							"parameter_longname" : "live.dial[2]"
						}

					}
,
					"varname" : "live.dial[2]"
				}

			}
, 			{
				"box" : 				{
					"id" : "obj-49",
					"maxclass" : "number",
					"numinlets" : 1,
					"numoutlets" : 2,
					"outlettype" : [ "", "bang" ],
					"parameter_enable" : 0,
					"patching_rect" : [ 474.0, 260.0, 50.0, 22.0 ]
				}

			}
, 			{
				"box" : 				{
					"id" : "obj-50",
					"maxclass" : "number",
					"numinlets" : 1,
					"numoutlets" : 2,
					"outlettype" : [ "", "bang" ],
					"parameter_enable" : 0,
					"patching_rect" : [ 440.0, 260.0, 50.0, 22.0 ]
				}

			}
, 			{
				"box" : 				{
					"id" : "obj-53",
					"maxclass" : "newobj",
					"numinlets" : 1,
					"numoutlets" : 2,
					"outlettype" : [ "int", "int" ],
					"patching_rect" : [ 440.0, 229.0, 49.0, 22.0 ],
					"text" : "ctlin 89"
				}

			}
, 			{
				"box" : 				{
					"id" : "obj-52",
					"maxclass" : "newobj",
					"numinlets" : 2,
					"numoutlets" : 1,
					"outlettype" : [ "int" ],
					"patching_rect" : [ 457.5, 681.0, 37.0, 22.0 ],
					"text" : "* 800"
				}

			}
, 			{
				"box" : 				{
					"id" : "obj-51",
					"maxclass" : "newobj",
					"numinlets" : 2,
					"numoutlets" : 1,
					"outlettype" : [ "int" ],
					"patching_rect" : [ 383.0, 681.0, 37.0, 22.0 ],
					"text" : "* 800"
				}

			}
, 			{
				"box" : 				{
					"id" : "obj-44",
					"maxclass" : "live.dial",
					"numinlets" : 1,
					"numoutlets" : 2,
					"outlettype" : [ "", "float" ],
					"parameter_enable" : 1,
					"patching_rect" : [ 531.0, 289.5, 44.0, 48.0 ],
					"saved_attribute_attributes" : 					{
						"valueof" : 						{
							"parameter_shortname" : "live.dial",
							"parameter_type" : 0,
							"parameter_unitstyle" : 0,
							"parameter_longname" : "live.dial[3]"
						}

					}
,
					"varname" : "live.dial[1]"
				}

			}
, 			{
				"box" : 				{
					"id" : "obj-45",
					"maxclass" : "number",
					"numinlets" : 1,
					"numoutlets" : 2,
					"outlettype" : [ "", "bang" ],
					"parameter_enable" : 0,
					"patching_rect" : [ 562.0, 260.0, 50.0, 22.0 ]
				}

			}
, 			{
				"box" : 				{
					"id" : "obj-46",
					"maxclass" : "number",
					"numinlets" : 1,
					"numoutlets" : 2,
					"outlettype" : [ "", "bang" ],
					"parameter_enable" : 0,
					"patching_rect" : [ 528.0, 260.0, 50.0, 22.0 ]
				}

			}
, 			{
				"box" : 				{
					"id" : "obj-47",
					"maxclass" : "newobj",
					"numinlets" : 1,
					"numoutlets" : 2,
					"outlettype" : [ "int", "int" ],
					"patching_rect" : [ 528.0, 229.0, 49.0, 22.0 ],
					"text" : "ctlin 57"
				}

			}
, 			{
				"box" : 				{
					"fontname" : "Arial",
					"fontsize" : 13.0,
					"id" : "obj-70",
					"maxclass" : "number",
					"numinlets" : 1,
					"numoutlets" : 2,
					"outlettype" : [ "", "bang" ],
					"parameter_enable" : 0,
					"patching_rect" : [ 412.0, 435.0, 53.0, 23.0 ]
				}

			}
, 			{
				"box" : 				{
					"fontname" : "Arial",
					"fontsize" : 13.0,
					"id" : "obj-71",
					"maxclass" : "number",
					"numinlets" : 1,
					"numoutlets" : 2,
					"outlettype" : [ "", "bang" ],
					"parameter_enable" : 0,
					"patching_rect" : [ 378.0, 460.0, 53.0, 23.0 ]
				}

			}
, 			{
				"box" : 				{
					"id" : "obj-63",
					"maxclass" : "newobj",
					"numinlets" : 1,
					"numoutlets" : 2,
					"outlettype" : [ "int", "int" ],
					"patching_rect" : [ 332.0, 426.0, 42.0, 22.0 ],
					"text" : "ctlin 0"
				}

			}
, 			{
				"box" : 				{
					"fontname" : "Arial",
					"fontsize" : 13.0,
					"id" : "obj-60",
					"maxclass" : "number",
					"numinlets" : 1,
					"numoutlets" : 2,
					"outlettype" : [ "", "bang" ],
					"parameter_enable" : 0,
					"patching_rect" : [ 378.0, 649.0, 53.0, 23.0 ]
				}

			}
, 			{
				"box" : 				{
					"id" : "obj-62",
					"maxclass" : "slider",
					"numinlets" : 1,
					"numoutlets" : 1,
					"outlettype" : [ "" ],
					"parameter_enable" : 0,
					"patching_rect" : [ 378.0, 497.0, 20.0, 140.0 ]
				}

			}
, 			{
				"box" : 				{
					"annotation" : "## Combine two videos using lumakeying ##",
					"bgmode" : 1,
					"border" : 0,
					"clickthrough" : 0,
					"enablehscroll" : 0,
					"enablevscroll" : 0,
					"id" : "obj-21",
					"lockeddragscroll" : 0,
					"maxclass" : "bpatcher",
					"name" : "vz.lumakeyr.maxpat",
					"numinlets" : 5,
					"numoutlets" : 1,
					"offset" : [ 0.0, 0.0 ],
					"outlettype" : [ "" ],
					"patching_rect" : [ 4.0, 159.0, 480.0, 146.0 ],
					"prototypename" : "pixl",
					"varname" : "chromakeyr",
					"viewvisibility" : 1
				}

			}
, 			{
				"box" : 				{
					"annotation" : "## VIZZIE video projector interface ##",
					"bgmode" : 1,
					"border" : 0,
					"clickthrough" : 0,
					"enablehscroll" : 0,
					"enablevscroll" : 0,
					"id" : "obj-3",
					"lockeddragscroll" : 0,
					"maxclass" : "bpatcher",
					"name" : "vz.projectr.maxpat",
					"numinlets" : 3,
					"numoutlets" : 1,
					"offset" : [ 0.0, 0.0 ],
					"outlettype" : [ "" ],
					"patching_rect" : [ 980.0, 5.0, 168.0, 108.0 ],
					"prototypename" : "pixl",
					"varname" : "projectr",
					"viewvisibility" : 1
				}

			}
, 			{
				"box" : 				{
					"annotation" : "## View or monitor a video input ##",
					"bgmode" : 1,
					"border" : 0,
					"clickthrough" : 0,
					"enablehscroll" : 0,
					"enablevscroll" : 0,
					"id" : "obj-19",
					"lockeddragscroll" : 0,
					"maxclass" : "bpatcher",
					"name" : "vz.viewr.maxpat",
					"numinlets" : 1,
					"numoutlets" : 0,
					"offset" : [ 0.0, 0.0 ],
					"patching_rect" : [ 650.0, 38.0, 307.0, 208.0 ],
					"prototypename" : "pixl",
					"varname" : "viewr",
					"viewvisibility" : 1
				}

			}
 ],
		"lines" : [ 			{
				"patchline" : 				{
					"destination" : [ "obj-35", 0 ],
					"source" : [ "obj-1", 0 ]
				}

			}
, 			{
				"patchline" : 				{
					"destination" : [ "obj-99", 0 ],
					"source" : [ "obj-101", 0 ]
				}

			}
, 			{
				"patchline" : 				{
					"destination" : [ "obj-100", 0 ],
					"source" : [ "obj-102", 1 ]
				}

			}
, 			{
				"patchline" : 				{
					"destination" : [ "obj-101", 0 ],
					"source" : [ "obj-102", 0 ]
				}

			}
, 			{
				"patchline" : 				{
					"destination" : [ "obj-35", 1 ],
					"source" : [ "obj-103", 0 ]
				}

			}
, 			{
				"patchline" : 				{
					"destination" : [ "obj-21", 1 ],
					"source" : [ "obj-109", 0 ]
				}

			}
, 			{
				"patchline" : 				{
					"destination" : [ "obj-109", 4 ],
					"order" : 0,
					"source" : [ "obj-110", 0 ]
				}

			}
, 			{
				"patchline" : 				{
					"destination" : [ "obj-19", 0 ],
					"order" : 1,
					"source" : [ "obj-110", 0 ]
				}

			}
, 			{
				"patchline" : 				{
					"destination" : [ "obj-115", 0 ],
					"source" : [ "obj-112", 0 ]
				}

			}
, 			{
				"patchline" : 				{
					"destination" : [ "obj-111", 0 ],
					"source" : [ "obj-113", 1 ]
				}

			}
, 			{
				"patchline" : 				{
					"destination" : [ "obj-112", 0 ],
					"source" : [ "obj-113", 0 ]
				}

			}
, 			{
				"patchline" : 				{
					"destination" : [ "obj-121", 0 ],
					"source" : [ "obj-114", 0 ]
				}

			}
, 			{
				"patchline" : 				{
					"destination" : [ "obj-114", 0 ],
					"source" : [ "obj-115", 0 ]
				}

			}
, 			{
				"patchline" : 				{
					"destination" : [ "obj-120", 0 ],
					"source" : [ "obj-117", 0 ]
				}

			}
, 			{
				"patchline" : 				{
					"destination" : [ "obj-116", 0 ],
					"source" : [ "obj-118", 1 ]
				}

			}
, 			{
				"patchline" : 				{
					"destination" : [ "obj-117", 0 ],
					"source" : [ "obj-118", 0 ]
				}

			}
, 			{
				"patchline" : 				{
					"destination" : [ "obj-122", 0 ],
					"source" : [ "obj-119", 0 ]
				}

			}
, 			{
				"patchline" : 				{
					"destination" : [ "obj-119", 0 ],
					"source" : [ "obj-120", 0 ]
				}

			}
, 			{
				"patchline" : 				{
					"destination" : [ "obj-110", 1 ],
					"source" : [ "obj-121", 0 ]
				}

			}
, 			{
				"patchline" : 				{
					"destination" : [ "obj-110", 2 ],
					"source" : [ "obj-122", 0 ]
				}

			}
, 			{
				"patchline" : 				{
					"destination" : [ "obj-67", 0 ],
					"source" : [ "obj-17", 0 ]
				}

			}
, 			{
				"patchline" : 				{
					"destination" : [ "obj-17", 0 ],
					"source" : [ "obj-21", 0 ]
				}

			}
, 			{
				"patchline" : 				{
					"destination" : [ "obj-110", 0 ],
					"source" : [ "obj-35", 0 ]
				}

			}
, 			{
				"patchline" : 				{
					"destination" : [ "obj-59", 0 ],
					"source" : [ "obj-44", 0 ]
				}

			}
, 			{
				"patchline" : 				{
					"destination" : [ "obj-44", 0 ],
					"source" : [ "obj-46", 0 ]
				}

			}
, 			{
				"patchline" : 				{
					"destination" : [ "obj-45", 0 ],
					"source" : [ "obj-47", 1 ]
				}

			}
, 			{
				"patchline" : 				{
					"destination" : [ "obj-46", 0 ],
					"source" : [ "obj-47", 0 ]
				}

			}
, 			{
				"patchline" : 				{
					"destination" : [ "obj-54", 0 ],
					"source" : [ "obj-48", 0 ]
				}

			}
, 			{
				"patchline" : 				{
					"destination" : [ "obj-48", 0 ],
					"source" : [ "obj-50", 0 ]
				}

			}
, 			{
				"patchline" : 				{
					"destination" : [ "obj-17", 1 ],
					"order" : 1,
					"source" : [ "obj-51", 0 ]
				}

			}
, 			{
				"patchline" : 				{
					"destination" : [ "obj-67", 1 ],
					"order" : 0,
					"source" : [ "obj-51", 0 ]
				}

			}
, 			{
				"patchline" : 				{
					"destination" : [ "obj-17", 2 ],
					"order" : 1,
					"source" : [ "obj-52", 0 ]
				}

			}
, 			{
				"patchline" : 				{
					"destination" : [ "obj-67", 2 ],
					"order" : 0,
					"source" : [ "obj-52", 0 ]
				}

			}
, 			{
				"patchline" : 				{
					"destination" : [ "obj-109", 0 ],
					"order" : 1,
					"source" : [ "obj-53", 1 ]
				}

			}
, 			{
				"patchline" : 				{
					"destination" : [ "obj-49", 0 ],
					"order" : 0,
					"source" : [ "obj-53", 1 ]
				}

			}
, 			{
				"patchline" : 				{
					"destination" : [ "obj-50", 0 ],
					"source" : [ "obj-53", 0 ]
				}

			}
, 			{
				"patchline" : 				{
					"destination" : [ "obj-21", 3 ],
					"source" : [ "obj-54", 0 ]
				}

			}
, 			{
				"patchline" : 				{
					"destination" : [ "obj-61", 0 ],
					"source" : [ "obj-55", 0 ]
				}

			}
, 			{
				"patchline" : 				{
					"destination" : [ "obj-55", 0 ],
					"source" : [ "obj-57", 0 ]
				}

			}
, 			{
				"patchline" : 				{
					"destination" : [ "obj-56", 0 ],
					"source" : [ "obj-58", 1 ]
				}

			}
, 			{
				"patchline" : 				{
					"destination" : [ "obj-57", 0 ],
					"source" : [ "obj-58", 0 ]
				}

			}
, 			{
				"patchline" : 				{
					"destination" : [ "obj-21", 2 ],
					"source" : [ "obj-59", 0 ]
				}

			}
, 			{
				"patchline" : 				{
					"destination" : [ "obj-21", 0 ],
					"source" : [ "obj-6", 0 ]
				}

			}
, 			{
				"patchline" : 				{
					"destination" : [ "obj-51", 0 ],
					"source" : [ "obj-60", 0 ]
				}

			}
, 			{
				"patchline" : 				{
					"destination" : [ "obj-21", 4 ],
					"source" : [ "obj-61", 0 ]
				}

			}
, 			{
				"patchline" : 				{
					"destination" : [ "obj-60", 0 ],
					"source" : [ "obj-62", 0 ]
				}

			}
, 			{
				"patchline" : 				{
					"destination" : [ "obj-70", 0 ],
					"source" : [ "obj-63", 1 ]
				}

			}
, 			{
				"patchline" : 				{
					"destination" : [ "obj-71", 0 ],
					"source" : [ "obj-63", 0 ]
				}

			}
, 			{
				"patchline" : 				{
					"destination" : [ "obj-1", 0 ],
					"source" : [ "obj-67", 0 ]
				}

			}
, 			{
				"patchline" : 				{
					"destination" : [ "obj-1", 1 ],
					"source" : [ "obj-68", 0 ]
				}

			}
, 			{
				"patchline" : 				{
					"destination" : [ "obj-62", 0 ],
					"source" : [ "obj-71", 0 ]
				}

			}
, 			{
				"patchline" : 				{
					"destination" : [ "obj-77", 0 ],
					"source" : [ "obj-73", 0 ]
				}

			}
, 			{
				"patchline" : 				{
					"destination" : [ "obj-1", 2 ],
					"source" : [ "obj-74", 0 ]
				}

			}
, 			{
				"patchline" : 				{
					"destination" : [ "obj-72", 0 ],
					"source" : [ "obj-75", 1 ]
				}

			}
, 			{
				"patchline" : 				{
					"destination" : [ "obj-73", 0 ],
					"source" : [ "obj-75", 0 ]
				}

			}
, 			{
				"patchline" : 				{
					"destination" : [ "obj-52", 0 ],
					"source" : [ "obj-76", 0 ]
				}

			}
, 			{
				"patchline" : 				{
					"destination" : [ "obj-76", 0 ],
					"source" : [ "obj-77", 0 ]
				}

			}
, 			{
				"patchline" : 				{
					"destination" : [ "obj-83", 0 ],
					"source" : [ "obj-79", 0 ]
				}

			}
, 			{
				"patchline" : 				{
					"destination" : [ "obj-1", 3 ],
					"source" : [ "obj-80", 0 ]
				}

			}
, 			{
				"patchline" : 				{
					"destination" : [ "obj-78", 0 ],
					"source" : [ "obj-81", 1 ]
				}

			}
, 			{
				"patchline" : 				{
					"destination" : [ "obj-79", 0 ],
					"source" : [ "obj-81", 0 ]
				}

			}
, 			{
				"patchline" : 				{
					"destination" : [ "obj-68", 0 ],
					"source" : [ "obj-82", 0 ]
				}

			}
, 			{
				"patchline" : 				{
					"destination" : [ "obj-82", 0 ],
					"source" : [ "obj-83", 0 ]
				}

			}
, 			{
				"patchline" : 				{
					"destination" : [ "obj-74", 0 ],
					"source" : [ "obj-84", 0 ]
				}

			}
, 			{
				"patchline" : 				{
					"destination" : [ "obj-84", 0 ],
					"source" : [ "obj-86", 0 ]
				}

			}
, 			{
				"patchline" : 				{
					"destination" : [ "obj-85", 0 ],
					"source" : [ "obj-87", 1 ]
				}

			}
, 			{
				"patchline" : 				{
					"destination" : [ "obj-86", 0 ],
					"source" : [ "obj-87", 0 ]
				}

			}
, 			{
				"patchline" : 				{
					"destination" : [ "obj-80", 0 ],
					"source" : [ "obj-88", 0 ]
				}

			}
, 			{
				"patchline" : 				{
					"destination" : [ "obj-88", 0 ],
					"source" : [ "obj-90", 0 ]
				}

			}
, 			{
				"patchline" : 				{
					"destination" : [ "obj-89", 0 ],
					"source" : [ "obj-91", 1 ]
				}

			}
, 			{
				"patchline" : 				{
					"destination" : [ "obj-90", 0 ],
					"source" : [ "obj-91", 0 ]
				}

			}
, 			{
				"patchline" : 				{
					"destination" : [ "obj-97", 0 ],
					"source" : [ "obj-93", 0 ]
				}

			}
, 			{
				"patchline" : 				{
					"destination" : [ "obj-92", 0 ],
					"source" : [ "obj-95", 1 ]
				}

			}
, 			{
				"patchline" : 				{
					"destination" : [ "obj-93", 0 ],
					"source" : [ "obj-95", 0 ]
				}

			}
, 			{
				"patchline" : 				{
					"destination" : [ "obj-69", 0 ],
					"source" : [ "obj-96", 0 ]
				}

			}
, 			{
				"patchline" : 				{
					"destination" : [ "obj-96", 0 ],
					"source" : [ "obj-97", 0 ]
				}

			}
, 			{
				"patchline" : 				{
					"destination" : [ "obj-103", 0 ],
					"source" : [ "obj-99", 0 ]
				}

			}
 ],
		"parameters" : 		{
			"obj-19::obj-20" : [ "letterbox_menu", "letterbox_menu", 0 ],
			"obj-35::obj-44" : [ "loffset[2]", "L offset", 0 ],
			"obj-17::obj-41" : [ "pictctrl[6]", "pictctrl[1]", 0 ],
			"obj-35::obj-127" : [ "saturation[3]", "saturation", 0 ],
			"obj-35::obj-142" : [ "lightness", "lightness", 0 ],
			"obj-67::obj-47" : [ "pictctrl[212]", "pictctrl[1]", 0 ],
			"obj-67::obj-2" : [ "range[27]", "range", 0 ],
			"obj-3::obj-50" : [ "pictctrl[1]", "pictctrl[1]", 0 ],
			"obj-21::obj-48" : [ "fade", "fade", 0 ],
			"obj-109::obj-112::obj-120" : [ "range[6]", "range", 0 ],
			"obj-109::obj-64" : [ "pictctrl[49]", "pictctrl[1]", 0 ],
			"obj-21::obj-85" : [ "pictctrl[8]", "pictctrl[1]", 0 ],
			"obj-109::obj-112::obj-119" : [ "speed[3]", "speed", 0 ],
			"obj-88" : [ "live.dial[8]", "live.dial", 0 ],
			"obj-109::obj-112::obj-89" : [ "FreqMode[2]", "FreqMode", 0 ],
			"obj-17::obj-94" : [ "umenu[1]", "umenu", 0 ],
			"obj-1::obj-99" : [ "horizontal[1]", "horizontal", 0 ],
			"obj-6::obj-51" : [ "moviepath", "moviepath", 0 ],
			"obj-109::obj-112::obj-121" : [ "speed[4]", "speed", 0 ],
			"obj-44" : [ "live.dial[3]", "live.dial", 0 ],
			"obj-1::obj-50" : [ "pictctrl[70]", "pictctrl[1]", 0 ],
			"obj-6::obj-83" : [ "pictctrl[280]", "pictctrl[1]", 0 ],
			"obj-6::obj-81" : [ "pictctrl[281]", "pictctrl[1]", 0 ],
			"obj-21::obj-9" : [ "tolerance", "tolerance", 0 ],
			"obj-21::obj-78" : [ "luminance", "luminance", 0 ],
			"obj-6::obj-60" : [ "pictctrl[282]", "pictctrl[1]", 0 ],
			"obj-6::obj-40" : [ "pictctrl[283]", "pictctrl[1]", 0 ],
			"obj-3::obj-41" : [ "pictctrl[7]", "pictctrl[1]", 0 ],
			"obj-67::obj-94" : [ "umenu[20]", "umenu", 0 ],
			"obj-6::obj-64" : [ "pictctrl[284]", "pictctrl[1]", 0 ],
			"obj-109::obj-60" : [ "pictctrl[52]", "pictctrl[1]", 0 ],
			"obj-1::obj-94" : [ "umenu[14]", "umenu", 0 ],
			"obj-6::obj-89" : [ "moviename", "moviename", 0 ],
			"obj-109::obj-40" : [ "pictctrl[41]", "pictctrl[1]", 0 ],
			"obj-110::obj-99" : [ "horizontal[6]", "horizontal", 0 ],
			"obj-35::obj-148" : [ "pictctrl[90]", "pictctrl[1]", 0 ],
			"obj-99" : [ "live.dial[5]", "live.dial", 0 ],
			"obj-67::obj-16" : [ "horizontal[4]", "horizontal", 0 ],
			"obj-6::obj-112::obj-119" : [ "speed[1]", "speed", 0 ],
			"obj-17::obj-53" : [ "pictctrl[114]", "pictctrl[1]", 0 ],
			"obj-110::obj-79" : [ "pictctrl[73]", "pictctrl[1]", 0 ],
			"obj-3::obj-6" : [ "live.toggle[1]", "live.toggle", 0 ],
			"obj-17::obj-24" : [ "vertical", "vertical", 0 ],
			"obj-110::obj-16" : [ "range[8]", "range", 0 ],
			"obj-67::obj-54" : [ "umenu[3]", "umenu", 0 ],
			"obj-6::obj-112::obj-92" : [ "FreqMode[13]", "FreqMode", 0 ],
			"obj-17::obj-54" : [ "umenu[6]", "umenu", 0 ],
			"obj-35::obj-24" : [ "pictctrl[88]", "pictctrl[1]", 0 ],
			"obj-35::obj-34" : [ "pictctrl[87]", "pictctrl[1]", 0 ],
			"obj-21::obj-32" : [ "pictctrl[4]", "pictctrl[1]", 0 ],
			"obj-110::obj-28" : [ "pictctrl[42]", "pictctrl[1]", 0 ],
			"obj-17::obj-51" : [ "pictctrl[98]", "pictctrl[1]", 0 ],
			"obj-35::obj-119" : [ "hue[1]", "hue", 0 ],
			"obj-6::obj-112::obj-79" : [ "slider[3]", "slider[2]", 0 ],
			"obj-35::obj-32" : [ "soffset[1]", "S offset", 0 ],
			"obj-109::obj-112::obj-92" : [ "FreqMode[3]", "FreqMode", 0 ],
			"obj-109::obj-112::obj-16" : [ "rslider[3]", "rslider[2]", 0 ],
			"obj-109::obj-81" : [ "pictctrl[50]", "pictctrl[1]", 0 ],
			"obj-67::obj-53" : [ "pictctrl[214]", "pictctrl[1]", 0 ],
			"obj-84" : [ "live.dial[7]", "live.dial", 0 ],
			"obj-6::obj-112::obj-16" : [ "rslider[2]", "rslider[2]", 0 ],
			"obj-3::obj-12" : [ "textbutton[5]", "textbutton", 0 ],
			"obj-48" : [ "live.dial[2]", "live.dial", 0 ],
			"obj-1::obj-28" : [ "pictctrl[71]", "pictctrl[1]", 0 ],
			"obj-19::obj-37" : [ "aspect_menu", "aspect_menu", 0 ],
			"obj-6::obj-112::obj-120" : [ "range", "range", 0 ],
			"obj-109::obj-51" : [ "moviepath[1]", "moviepath", 0 ],
			"obj-6::obj-112::obj-89" : [ "FreqMode[12]", "FreqMode", 0 ],
			"obj-110::obj-50" : [ "pictctrl[63]", "pictctrl[1]", 0 ],
			"obj-21::obj-11" : [ "range[4]", "range", 0 ],
			"obj-109::obj-112::obj-94" : [ "textbutton[6]", "textbutton", 0 ],
			"obj-3::obj-16" : [ "live.toggle", "live.toggle", 0 ],
			"obj-67::obj-41" : [ "pictctrl[213]", "pictctrl[1]", 0 ],
			"obj-6::obj-28" : [ "pictctrl[279]", "pictctrl[1]", 0 ],
			"obj-17::obj-47" : [ "pictctrl[78]", "pictctrl[1]", 0 ],
			"obj-1::obj-101" : [ "umenu[15]", "umenu", 0 ],
			"obj-55" : [ "live.dial[4]", "live.dial", 0 ],
			"obj-6::obj-112::obj-121" : [ "speed", "speed", 0 ],
			"obj-17::obj-68" : [ "horizontal", "horizontal", 0 ],
			"obj-67::obj-17" : [ "vertical[4]", "vertical", 0 ],
			"obj-110::obj-98" : [ "vertical[3]", "vertical", 0 ],
			"obj-1::obj-79" : [ "pictctrl[74]", "pictctrl[1]", 0 ],
			"obj-67::obj-51" : [ "pictctrl[211]", "pictctrl[1]", 0 ],
			"obj-35::obj-6" : [ "range[17]", "range", 0 ],
			"obj-1::obj-16" : [ "range[24]", "range", 0 ],
			"obj-17::obj-17" : [ "range[1]", "range", 0 ],
			"obj-1::obj-100" : [ "gain", "gain", 0 ],
			"obj-109::obj-112::obj-79" : [ "slider[4]", "slider[2]", 0 ],
			"obj-109::obj-83" : [ "pictctrl[47]", "pictctrl[1]", 0 ],
			"obj-109::obj-28" : [ "pictctrl[51]", "pictctrl[1]", 0 ],
			"obj-35::obj-104" : [ "pictctrl[92]", "pictctrl[1]", 0 ],
			"obj-6::obj-112::obj-94" : [ "textbutton", "textbutton", 0 ],
			"obj-21::obj-53" : [ "pictctrl[5]", "pictctrl[1]", 0 ],
			"obj-35::obj-21" : [ "pictctrl[89]", "pictctrl[1]", 0 ],
			"obj-1::obj-98" : [ "vertical[1]", "vertical", 0 ],
			"obj-1::obj-68" : [ "horizontal[3]", "horizontal", 0 ],
			"obj-35::obj-15" : [ "hoffset", "H offset", 0 ],
			"obj-1::obj-21" : [ "pictctrl[72]", "pictctrl[1]", 0 ],
			"obj-35::obj-147" : [ "pictctrl[91]", "pictctrl[1]", 0 ],
			"obj-109::obj-89" : [ "moviename[1]", "moviename", 0 ],
			"obj-110::obj-37" : [ "umenu[21]", "umenu", 0 ],
			"parameterbanks" : 			{

			}

		}
,
		"dependency_cache" : [ 			{
				"name" : "vz.viewr.maxpat",
				"bootpath" : "C74:/packages/vizzie/patchers",
				"type" : "JSON",
				"implicit" : 1
			}
, 			{
				"name" : "snapshot_UI.maxpat",
				"bootpath" : "C74:/packages/vizzie/patchers",
				"type" : "JSON",
				"implicit" : 1
			}
, 			{
				"name" : "vzgl-disable.maxpat",
				"bootpath" : "C74:/packages/vizzie/patchers",
				"type" : "JSON",
				"implicit" : 1
			}
, 			{
				"name" : "windowresize.js",
				"bootpath" : "C74:/packages/vizzie/patchers",
				"type" : "TEXT",
				"implicit" : 1
			}
, 			{
				"name" : "vzgl-context.maxpat",
				"bootpath" : "C74:/packages/vizzie/patchers",
				"type" : "JSON",
				"implicit" : 1
			}
, 			{
				"name" : "vizzie-global.js",
				"bootpath" : "C74:/packages/vizzie/code",
				"type" : "TEXT",
				"implicit" : 1
			}
, 			{
				"name" : "vz.projectr.maxpat",
				"bootpath" : "C74:/packages/vizzie/patchers",
				"type" : "JSON",
				"implicit" : 1
			}
, 			{
				"name" : "data-handler.maxpat",
				"bootpath" : "C74:/packages/vizzie/patchers",
				"type" : "JSON",
				"implicit" : 1
			}
, 			{
				"name" : "vzgl-object.maxpat",
				"bootpath" : "C74:/packages/vizzie/patchers",
				"type" : "JSON",
				"implicit" : 1
			}
, 			{
				"name" : "vz.lumakeyr.maxpat",
				"bootpath" : "C74:/packages/vizzie/patchers",
				"type" : "JSON",
				"implicit" : 1
			}
, 			{
				"name" : "video-handler.maxpat",
				"bootpath" : "C74:/packages/vizzie/patchers",
				"type" : "JSON",
				"implicit" : 1
			}
, 			{
				"name" : "vzgl-pwindow.maxpat",
				"bootpath" : "C74:/packages/vizzie/patchers",
				"type" : "JSON",
				"implicit" : 1
			}
, 			{
				"name" : "2input-router.maxpat",
				"bootpath" : "C74:/packages/vizzie/patchers",
				"type" : "JSON",
				"implicit" : 1
			}
, 			{
				"name" : "vzgl-routemat.maxpat",
				"bootpath" : "C74:/packages/vizzie/patchers",
				"type" : "JSON",
				"implicit" : 1
			}
, 			{
				"name" : "vzgl-routegl.maxpat",
				"bootpath" : "C74:/packages/vizzie/patchers",
				"type" : "JSON",
				"implicit" : 1
			}
, 			{
				"name" : "vz.kaleidr.maxpat",
				"bootpath" : "C74:/packages/vizzie/patchers",
				"type" : "JSON",
				"implicit" : 1
			}
, 			{
				"name" : "vz.fractalizr.maxpat",
				"bootpath" : "C74:/packages/vizzie/patchers",
				"type" : "JSON",
				"implicit" : 1
			}
, 			{
				"name" : "eclipse.genjit",
				"bootpath" : "~/Library/Application Support/Cycling '74/Max 8/Examples/jitter-examples/gen",
				"patcherrelativepath" : "../Library/Application Support/Cycling '74/Max 8/Examples/jitter-examples/gen",
				"type" : "gJIT",
				"implicit" : 1
			}
, 			{
				"name" : "vz.zamplr.maxpat",
				"bootpath" : "C74:/packages/vizzie/patchers",
				"type" : "JSON",
				"implicit" : 1
			}
, 			{
				"name" : "ameba.genjit",
				"bootpath" : "~/Library/Application Support/Cycling '74/Max 8/Examples/jitter-examples/gen",
				"patcherrelativepath" : "../Library/Application Support/Cycling '74/Max 8/Examples/jitter-examples/gen",
				"type" : "gJIT",
				"implicit" : 1
			}
, 			{
				"name" : "rgb2luma.genjit",
				"bootpath" : "~/Library/Application Support/Cycling '74/Max 8/Examples/jitter-examples/gen",
				"patcherrelativepath" : "../Library/Application Support/Cycling '74/Max 8/Examples/jitter-examples/gen",
				"type" : "gJIT",
				"implicit" : 1
			}
, 			{
				"name" : "vz.husalir.maxpat",
				"bootpath" : "C74:/packages/vizzie/patchers",
				"type" : "JSON",
				"implicit" : 1
			}
, 			{
				"name" : "vz.playr.maxpat",
				"bootpath" : "C74:/packages/vizzie/patchers",
				"type" : "JSON",
				"implicit" : 1
			}
, 			{
				"name" : "playr-handler.maxpat",
				"bootpath" : "C74:/packages/vizzie/patchers",
				"type" : "JSON",
				"implicit" : 1
			}
, 			{
				"name" : "playr_controls.maxpat",
				"bootpath" : "C74:/packages/vizzie/patchers",
				"type" : "JSON",
				"implicit" : 1
			}
, 			{
				"name" : "diminit.maxpat",
				"bootpath" : "C74:/packages/vizzie/patchers",
				"type" : "JSON",
				"implicit" : 1
			}
, 			{
				"name" : "dinit.js",
				"bootpath" : "C74:/packages/vizzie/patchers",
				"type" : "TEXT",
				"implicit" : 1
			}
, 			{
				"name" : "vz.resamplr.maxpat",
				"bootpath" : "C74:/packages/vizzie/patchers",
				"type" : "JSON",
				"implicit" : 1
			}
 ],
		"autosave" : 0
	}

}